<svg width="13" height="18" viewBox="0 0 13 18" fill="none" xmlns="http://www.w3.org/2000/svg">
<path fill-rule="evenodd" clip-rule="evenodd" d="M0 2.75612C0 1.61453 0.92544 0.689087 2.06703 0.689087H9.43296C10.1641 0.689087 10.7567 1.28176 10.7567 2.01287V3.42315H11.0658C12.0047 3.42315 12.7658 4.18427 12.7658 5.12315V14.9455C12.7658 16.1605 11.7808 17.1455 10.5658 17.1455H2.2C0.984973 17.1455 0 16.1605 0 14.9455V2.75612ZM1.4 4.71316V14.9455C1.4 15.3873 1.75817 15.7455 2.2 15.7455H10.5658C11.0076 15.7455 11.3658 15.3873 11.3658 14.9455V5.12315C11.3658 4.95747 11.2315 4.82315 11.0658 4.82315H2.06703C1.83363 4.82315 1.60927 4.78447 1.4 4.71316ZM1.4 2.75612C1.4 3.12451 1.69864 3.42315 2.06703 3.42315H9.35674V2.08909H2.06703C1.69864 2.08909 1.4 2.38773 1.4 2.75612Z" fill="#b0babf"/>
<path fill-rule="evenodd" clip-rule="evenodd" d="M2.75757 7.58574C2.75757 7.19914 3.07097 6.88574 3.45757 6.88574H9.30827C9.69487 6.88574 10.0083 7.19914 10.0083 7.58574C10.0083 7.97234 9.69487 8.28574 9.30827 8.28574H3.45757C3.07097 8.28574 2.75757 7.97234 2.75757 7.58574Z" fill="#b0babf"/>
</svg>
